<?xml version="1.0" encoding="UTF-8" standalone="no"?>
<!-- Created with Inkscape (http://www.inkscape.org/) -->

<svg
   width="200mm"
   height="82mm"
   viewBox="0 0 200 82"
   version="1.1"
   id="svg1"
   xml:space="preserve"
   inkscape:export-filename="emacs.png"
   inkscape:export-xdpi="76.199997"
   inkscape:export-ydpi="76.199997"
   inkscape:version="1.3.2 (091e20ef0f, 2023-11-25, custom)"
   sodipodi:docname="emacs.svg"
   xmlns:inkscape="http://www.inkscape.org/namespaces/inkscape"
   xmlns:sodipodi="http://sodipodi.sourceforge.net/DTD/sodipodi-0.dtd"
   xmlns="http://www.w3.org/2000/svg"
   xmlns:svg="http://www.w3.org/2000/svg"><sodipodi:namedview
     id="namedview1"
     pagecolor="#ffffff"
     bordercolor="#000000"
     borderopacity="0.25"
     inkscape:showpageshadow="2"
     inkscape:pageopacity="0.0"
     inkscape:pagecheckerboard="0"
     inkscape:deskcolor="#d1d1d1"
     inkscape:document-units="mm"
     inkscape:zoom="1.7512508"
     inkscape:cx="391.149"
     inkscape:cy="277.51593"
     inkscape:window-width="2477"
     inkscape:window-height="1412"
     inkscape:window-x="0"
     inkscape:window-y="0"
     inkscape:window-maximized="0"
     inkscape:current-layer="g221" /><defs
     id="defs1"><inkscape:path-effect
       effect="powerstroke"
       id="path-effect15"
       is_visible="true"
       lpeversion="1.3"
       scale_width="1"
       interpolator_type="CubicBezierJohan"
       interpolator_beta="0.2"
       start_linecap_type="zerowidth"
       end_linecap_type="zerowidth"
       offset_points="21,4.9921382"
       linejoin_type="extrp_arc"
       miter_limit="4"
       not_jump="false"
       sort_points="true"
       message="&lt;b&gt;Ctrl + click&lt;/b&gt; on existing node and move it" /><inkscape:path-effect
       effect="powerstroke"
       id="path-effect13"
       is_visible="true"
       lpeversion="1.3"
       scale_width="1"
       interpolator_type="CubicBezierJohan"
       interpolator_beta="0.2"
       start_linecap_type="zerowidth"
       end_linecap_type="zerowidth"
       offset_points="3,4.9921382"
       linejoin_type="extrp_arc"
       miter_limit="4"
       not_jump="false"
       sort_points="true"
       message="&lt;b&gt;Ctrl + click&lt;/b&gt; on existing node and move it" /><inkscape:path-effect
       effect="powerstroke"
       id="path-effect9"
       is_visible="true"
       lpeversion="1.3"
       scale_width="1"
       interpolator_type="CubicBezierJohan"
       interpolator_beta="0.2"
       start_linecap_type="zerowidth"
       end_linecap_type="zerowidth"
       offset_points="0,4.9921382"
       linejoin_type="extrp_arc"
       miter_limit="4"
       not_jump="false"
       sort_points="true"
       message="&lt;b&gt;Ctrl + click&lt;/b&gt; on existing node and move it" /><inkscape:path-effect
       effect="fill_between_many"
       method="bsplinespiro"
       autoreverse="false"
       close="false"
       join="false"
       linkedpaths="#path9,0,1"
       id="path-effect10"
       is_visible="true"
       lpeversion="0" /><inkscape:path-effect
       effect="fill_between_many"
       method="bsplinespiro"
       autoreverse="false"
       close="false"
       join="false"
       linkedpaths="#path13,0,1"
       id="path-effect14"
       is_visible="true"
       lpeversion="0" /><inkscape:path-effect
       effect="fill_between_many"
       method="bsplinespiro"
       autoreverse="false"
       close="false"
       join="false"
       linkedpaths="#path14,0,1"
       id="path-effect16"
       is_visible="true"
       lpeversion="0" /></defs><g
     inkscape:label="Layer 1"
     inkscape:groupmode="layer"
     id="layer1"><path
       style="display:none;fill:#f9f9f9;fill-opacity:1;stroke:#766c85;stroke-width:0;stroke-linejoin:round;stroke-opacity:0.960784"
       d="m 55.442941,53.493844 c 0,0 5.004314,0.814101 12.119938,1.466558 7.307903,0.670087 8.275932,3.386307 17.389553,2.404197 8.968706,-0.966493 22.042168,2.997707 28.356858,2.612299 6.72291,-0.410322 9.64067,-1.142474 15.07317,-1.546352 6.1697,-0.458684 7.38503,0.08762 13.14441,0.08762 5.75938,0 8.62304,-0.88007 12.98319,3.450676 4.07357,4.046097 11.14184,-3.061658 22.92239,1.388771 11.78055,4.450429 8.62434,18.835402 1.8178,24.59478 -6.80654,5.759379 6.60807,-0.903676 10.78936,1.331502 4.92254,2.631433 1.99186,3.053435 5.77925,14.908495 3.7233,11.65445 4.18544,10.08693 4.18544,10.08693 0,0 9.31757,7.87291 3.40647,13.73595 -5.9854,5.93673 -31.93837,14.39845 -44.2425,10.99518 -12.30413,-3.40327 -8.76836,-4.85433 -15.57489,-4.06896 -6.80654,0.78537 -20.29033,2.76001 -20.29033,2.76001 0,0 -10.95616,-0.12288 -15.96918,-3.40327 -4.0747,-2.66637 -8.90086,-5.49759 -13.874868,0.26179 -4.97401,5.75938 -49.216505,2.6179 -49.216505,2.6179 l -24.084673,-1.83253 c 0,0 -5.325663,-0.6494 -9.622945,-5.14384 C 7.60575,127.13804 6.9580913,124.81084 8.9104181,113.43927 13.463566,86.918891 16.282263,77.534127 16.282263,77.534127 c 0,0 0.706171,-11.946736 7.476191,-17.510383 6.243736,-5.131143 8.538336,-10.63363 19.088102,-8.588594 9.713716,1.882971 12.596385,2.058694 12.596385,2.058694 z"
       id="path232"
       sodipodi:nodetypes="csssssssssscssscssccsscssc" /><g
       id="g221"
       inkscape:label="emacs"><path
         style="font-size:50.8px;font-family:'FOT-Yuruka Std';-inkscape-font-specification:'FOT-Yuruka Std';fill:#9955ff;stroke-width:0.00608541"
         d="m 30.450208,72.789792 c 0.70654,0.09585 1.328561,-0.396864 1.463736,-1.043282 l 1.461191,-8.72484 c 0.124777,-0.596693 -0.307813,-1.258041 -0.954231,-1.393216 l -0.09945,-0.0208 -12.218214,-1.88031 0.718397,-4.676363 8.254257,1.726077 c 0.696142,0.145573 1.307765,-0.297416 1.503063,-0.983163 l 1.690352,-7.587044 0.0208,-0.09945 c 0.135175,-0.646418 -0.357538,-1.268439 -0.954231,-1.393216 l -8.900675,-1.861252 0.645611,-4.328293 11.710571,1.826054 c 0.607092,0.07505 1.268439,-0.357538 1.393216,-0.954231 l 0.0208,-0.09945 1.411466,-8.735238 c 0.07505,-0.607091 -0.357538,-1.268439 -0.954231,-1.393215 l -0.09945,-0.0208 -13.372274,-2.069741 -0.198898,-0.04159 -9.153829,-1.395202 c -0.596693,-0.124777 -1.258041,0.307814 -1.382818,0.904507 l -0.0208,0.09945 -6.0717839,39.21139 c -0.075052,0.607091 0.3078135,1.258041 0.9045069,1.382818 l 0.099449,0.0208 9.800248,1.530377 c 0.04972,0.0104 0.159571,-0.01853 0.209295,-0.0081 z"
         id="text1"
         aria-label="E" /><path
         style="font-size:50.8px;font-family:'FOT-Yuruka Std';-inkscape-font-specification:'FOT-Yuruka Std';fill:#b380ff;stroke-width:0.00608541"
         d="m 68.145466,69.595602 c 0.561104,-8.01e-4 1.00663,-0.419965 1.060954,-1.02714 l 0.705389,-18.14493 c 2.847863,0.662824 3.729337,2.781805 3.493407,8.269012 -0.28465,10.022108 7.518878,12.301386 8.227248,12.364765 0.505979,0.04527 0.979468,-0.116378 1.581315,-0.57256 0,0 4.66751,-3.713631 4.676564,-3.814827 0.326222,-0.225827 0.45458,-0.52036 0.477215,-0.77335 0.0498,-0.556576 -0.512106,-1.11688 -0.793059,-1.397031 -2.2106,-2.084892 -2.545352,-4.613986 -2.453487,-7.920957 0.267343,-9.25861 -5.757282,-15.458962 -14.662509,-16.25572 -2.833482,-0.253514 -5.96975,0.02691 -9.316664,0.951533 -1.905412,-0.935522 -3.998834,-1.479843 -6.275738,-1.683559 -2.428699,-0.217298 -4.994809,-0.03887 -7.652261,0.590419 l -3.049454,-0.119828 c -0.510506,0.0053 -0.951506,0.373894 -1.001303,0.930471 l -0.0091,0.101196 -1.089109,26.424074 c 8e-4,0.561104 0.36484,1.052701 0.870819,1.097971 l 0.101196,0.0091 9.502548,0.391174 c 0.561103,-8e-4 1.00663,-0.419965 1.060954,-1.02714 l 0.73255,-18.448517 c 3.165032,0.538193 4.037453,2.75837 3.833212,7.891391 l -0.449225,10.721424 c 8e-4,0.561104 0.36484,1.052701 0.870819,1.097972 l 0.101196,0.0091 z"
         id="use3"
         aria-label="m" /><path
         style="font-size:50.8px;font-family:'FOT-Yuruka Std';-inkscape-font-specification:'FOT-Yuruka Std';fill:#9955ff;stroke-width:0.00608541"
         d="m 122.21843,58.164847 c 0.1016,-0.2032 0.1524,-0.3556 0.1524,-0.4572 0,-0.508 -0.5588,-0.8128 -1.0668,-1.0668 -1.6256,-0.8636 -2.1844,-3.048 -2.1844,-6.096 0,-3.3528 0.7112,-7.772402 1.4224,-12.395202 v -0.254 c 0,-0.6096 -0.3556,-1.27 -1.6764,-1.3716 l -8.7884,-0.762 h -0.254 c -0.6096,0 -1.0668,0.1524 -1.3716,0.508 -1.9812,-0.8636 -4.4704,-1.4224 -7.0104,-1.4224 -10.058398,0 -14.376395,8.7884 -14.376395,14.884402 0,8.1788 7.315197,14.6812 15.798795,14.6812 2.5908,0 5.334,-0.6096 7.9756,-1.9812 2.54,2.3876 6.096,3.2004 6.604,3.2004 0.6604,0 1.1684,-0.4572 1.6256,-1.3208 z m -14.8844,-3.7084 c -1.1684,0.508 -2.286,0.7112 -3.2512,0.7112 -3.302,0 -5.283195,-2.4384 -5.283195,-5.2832 0,-2.5908 1.777995,-5.689602 4.978395,-5.689602 1.4732,0 2.8448,0.7112 3.4544,1.727202 -0.1016,1.524 -0.1524,2.8956 -0.1524,4.2164 0,1.5748 0.1016,2.9972 0.254,4.318 z"
         id="text1-0"
         aria-label="a" /><path
         style="font-size:50.8px;font-family:'FOT-Yuruka Std';-inkscape-font-specification:'FOT-Yuruka Std';fill:#b380ff;stroke-width:0.00608541"
         d="m 155.41309,52.36479 c 0.0831,-0.0774 0.13647,-0.220166 0.17202,-0.315343 0.4444,-1.189709 -2.58052,-4.705678 -7.86283,-6.678815 -7.85209,-2.933041 -17.98801,-1.7844 -21.96984,8.875396 -3.12858,8.375554 1.80489,16.508876 9.70456,19.459693 4.28295,1.59984 9.45582,1.688332 14.67923,-0.536116 0.78438,-0.357749 1.21785,-0.792341 1.43117,-1.363402 0.12443,-0.333118 0.15368,-0.701789 0.11757,-1.040647 -0.1748,-1.854833 -0.42589,-2.924735 -0.6781,-4.862708 -0.11981,-0.695493 -0.42941,-1.028055 -0.76253,-1.152487 -0.42829,-0.159984 -0.94547,-0.08203 -1.33766,0.09685 -3.06638,1.240641 -5.78354,1.256019 -7.82984,0.491651 -3.09325,-1.15544 -4.59535,-4.102577 -3.40435,-7.290998 1.93758,-5.187133 6.18442,-3.926151 7.42172,-3.463975 1.6656,0.62216 3.13565,1.767793 3.7256,2.801586 0.13703,0.21387 0.33942,0.397926 0.52977,0.46903 0.57106,0.213313 1.2723,-0.06703 1.67596,-0.566992 z"
         id="use5"
         aria-label="c" /><path
         style="font-size:50.8px;font-family:'FOT-Yuruka Std';-inkscape-font-specification:'FOT-Yuruka Std';fill:#9955ff;stroke-width:0.00608541"
         d="m 163.793,69.896797 c 6.8072,0 15.9004,-3.2512 15.9004,-9.2456 0,-1.9304 -1.016,-4.2164 -3.3528,-6.7564 -1.9304,-2.1336 -2.6924,-3.0988 -2.6924,-3.9624 0,-1.016 1.1684,-2.032 4.2164,-2.032 h 0.2032 c 0.6604,0 1.2192,-0.2032 1.2192,-0.762 0,-0.1524 0,-0.3048 -0.1016,-0.508 l -2.286,-5.8928 c -0.3556,-0.9144 -0.8636,-1.1176 -2.8448,-1.1176 -6.6548,0 -14.9352,3.048 -14.9352,8.7884 0,1.9304 0.9144,4.1148 3.1496,6.6548 l 1.3716,1.524 c 0.7112,0.9144 1.3716,1.7272 1.3716,2.3876 0,1.2192 -1.4224,2.6416 -4.4196,2.6924 -0.6096,0 -1.6256,0.1016 -1.6256,0.8636 0,0.1016 0.0508,0.254 0.1016,0.4064 l 2.2352,5.8928 c 0.3048,0.8636 0.8128,1.0668 1.9304,1.0668 z"
         id="text1-7"
         aria-label="s" /></g><g
       id="g220"
       inkscape:label="gnu"
       transform="translate(1.3796213,-48.668748)"><path
         d="m 174.10012,27.435779 c -0.22578,0 -0.63218,0.112889 -0.63218,0.587022 v 0.04516 c 0.0903,2.05458 0.15804,4.31236 0.15804,6.344362 0,1.557868 -0.0226,3.002847 -0.11288,4.064004 -0.15805,1.919113 -1.67076,2.889959 -3.1609,2.889959 -1.44498,0 -2.8448,-0.903112 -2.93511,-2.731914 -0.11289,-2.506136 0,0.158044 -0.54187,-10.295477 -0.0226,-0.270934 -0.24835,-0.496712 -0.51929,-0.496712 h -0.0452 l -4.5833,0.225778 c -0.27093,0.02258 -0.49671,0.248356 -0.49671,0.541867 v 0.04516 l 0.56445,10.656722 c 0.27093,5.034849 4.28978,7.49583 8.42152,7.49583 4.24462,0 8.60214,-2.619025 9.00854,-7.834497 0.11289,-1.309513 0.13547,-2.867381 0.13547,-4.402671 0,-2.551292 -0.0903,-5.102583 -0.18063,-6.592718 -0.0226,-0.293512 -0.27093,-0.541867 -0.56444,-0.541867 z"
         id="text3"
         style="font-size:22.5778px;font-family:'FOT-Yuruka Std';-inkscape-font-specification:'FOT-Yuruka Std';fill:#8787de;stroke-width:0.00608541"
         transform="rotate(14.033729)"
         aria-label="U" /><path
         d="m 87.573286,99.000513 c 0.225778,0 0.316089,0.112889 0.316089,0.316089 0,0.632179 -1.106312,2.212628 -3.341515,2.212628 -2.122313,0 -4.176893,-1.670761 -4.176893,-4.560719 0,-2.235202 1.196624,-4.741338 4.83165,-4.741338 0.948267,0 1.828802,0.2032 2.370669,0.474134 0.06773,0.04515 0.158044,0.06773 0.225778,0.06773 0.270933,0 0.496711,-0.2032 0.541867,-0.4064 l 0.767645,-3.793071 v -0.09031 c 0,-0.270934 -0.158044,-0.51929 -0.361245,-0.609601 -1.061156,-0.496711 -2.370669,-0.745067 -3.747915,-0.745067 -3.115736,0 -10.769611,1.73849 -10.769611,9.798765 0,6.163737 4.854228,9.843927 9.889077,9.843927 4.696183,0 9.34721,-3.20605 9.34721,-8.624725 0,-2.25778 -0.632179,-3.386671 -2.415825,-3.386671 -0.270934,0 -3.454403,0.135467 -5.915384,0.270934 -0.4064,0.02258 -0.699912,0.338667 -0.699912,0.677334 v 0.04516 l 0.04516,2.686758 c 0,0.338667 0.2032,0.699912 0.632178,0.699912 h 0.04516 c 0.541867,-0.02258 2.077158,-0.135467 2.348091,-0.135467 z"
         id="text2"
         style="font-size:22.5778px;font-family:'FOT-Yuruka Std';-inkscape-font-specification:'FOT-Yuruka Std';fill:#8787de;stroke-width:0.00608541"
         transform="rotate(-15.734416)"
         aria-label="G" /><path
         d="m 147.35414,61.357266 c 0.31609,0 0.56444,-0.225778 0.56444,-0.51929 0.31609,-4.199471 0.92569,-17.068817 0.92569,-17.65584 0,-0.270934 -0.15804,-0.519289 -0.51929,-0.541867 l -4.33494,-0.270934 h -0.0452 c -0.27093,0 -0.51929,0.248356 -0.51929,0.51929 l -0.27093,9.23432 c 0,0.180623 -0.0452,0.316089 -0.13547,0.316089 -0.0677,0 -0.13547,-0.04516 -0.2032,-0.180622 -2.12231,-3.58987 -4.89938,-8.195742 -6.25405,-9.55041 -0.11289,-0.112889 -0.56445,-0.293511 -0.90311,-0.293511 h -0.0452 l -4.40267,0.2032 c -0.45156,0.02258 -0.6096,0.564445 -0.6096,0.812801 v 0.04516 l 0.97084,17.317174 c 0.0226,0.293511 0.29352,0.654756 0.63218,0.654756 h 0.0677 l 4.22204,-0.541867 c 0.56445,-0.06773 0.79023,-0.51929 0.79023,-0.767646 v -0.02258 l -1.15147,-9.618144 v -0.09031 c 0,-0.180622 0.0452,-0.270933 0.15804,-0.270933 0.0677,0 0.15805,0.04516 0.24836,0.180622 0.97085,1.219201 5.48641,9.618143 5.96054,10.363211 0.13547,0.2032 0.33867,0.428978 0.58702,0.428978 z"
         id="text2-1"
         style="font-size:22.5778px;font-family:'FOT-Yuruka Std';-inkscape-font-specification:'FOT-Yuruka Std';fill:#5f5fd3;stroke-width:0.00608541"
         transform="rotate(8.0497442)"
         aria-label="N" /></g><g
       id="g25"
       inkscape:label="cow"
       style="display:none;fill:#9955ff;stroke-width:0.023;stroke-dasharray:none"
       transform="matrix(0.46051189,0,0,0.46051189,33.352997,-3.1586388)"><path
         style="display:inline;fill:#9955ff;fill-opacity:1;fill-rule:nonzero;stroke:#f56c85;stroke-width:0.023;stroke-dasharray:none;stroke-opacity:0.960784"
         d="m 70.206231,77.349484 0.643814,0.705128 c 0,0 0.613153,0.70513 1.164992,0 0.551841,-0.705128 4.169455,-5.947601 4.966554,-7.817723 0.797103,-1.870123 -1.164994,3.586956 -1.164994,3.586956 l -4.476031,7.511148 c 0,0 -0.67447,0.919731 -1.594202,0.275918 -0.919731,-0.643814 -1.318283,-0.09197 -1.318283,-0.09197 l -2.759197,5.916943 c 0,0 -0.337235,0.643813 -0.429207,-0.122632 -0.09198,-0.766442 2.728539,-8.001669 3.80156,-8.95206 1.07302,-0.950389 1.164994,-1.011706 1.164994,-1.011706 z"
         id="path23" /><path
         style="display:inline;fill:#9955ff;fill-opacity:1;fill-rule:nonzero;stroke:#f56c85;stroke-width:0.023;stroke-dasharray:none;stroke-opacity:0.960784"
         d="m 46.553077,54.482182 c 0,0 1.362057,4.086164 3.988874,1.459344 2.626821,-2.626821 3.405137,-3.356491 3.405137,-3.356491 0,0 2.383597,-1.556634 3.794295,-0.04865 1.4107,1.50799 1.31341,1.50799 1.31341,1.50799 0,0 2.578174,-4.523967 6.810272,-0.19458 4.2321,4.329388 4.086164,4.232098 4.086164,4.232098 0,0 1.79986,1.459344 3.356493,-0.04864 1.556634,-1.507991 1.459344,-1.653924 1.459344,-1.653924 0,0 0.437803,1.264764 -0.09729,2.23766 -0.535093,0.972897 -1.70257,2.675464 -2.43224,2.821401 -0.729674,0.145933 -2.529531,1.313407 -4.378034,-0.535094 -1.848501,-1.848503 -4.621255,-4.621257 -4.621255,-4.621257 0,0 -2.772754,-1.556634 -3.648361,-0.340513 -0.875607,1.21612 -1.362054,2.23766 -1.362054,2.23766 0,0 -1.556633,-2.23766 -2.237663,-2.675464 -0.681027,-0.437803 -1.702567,-1.070187 -2.578174,-0.145933 -0.875607,0.92425 -3.745648,3.794294 -3.745648,3.794294 0,0 -2.043083,1.799857 -3.84294,-0.19458 -1.799858,-1.994437 0.72967,-4.475321 0.72967,-4.475321 z"
         id="path17" /><path
         style="fill:#9955ff;fill-opacity:1;fill-rule:nonzero;stroke:#f56c85;stroke-width:0.023;stroke-dasharray:none;stroke-opacity:0.960784"
         d="m 57.063563,57.815461 c 0,0 -6.256851,8.163446 -6.713361,10.070039 -0.456506,1.906595 0.08056,3.571507 3.276121,2.148276 3.195559,-1.423233 7.545817,-7.357843 7.545817,-7.357843 0,0 -5.129007,4.323403 -6.042025,4.484524 -0.913017,0.16112 -3.974309,0.859311 -2.685344,-1.772328 1.288965,-2.631635 4.618792,-7.572668 4.618792,-7.572668 z"
         id="path18" /><path
         style="display:inline;fill:#9955ff;fill-opacity:1;fill-rule:nonzero;stroke:#f56c85;stroke-width:0.023;stroke-dasharray:none;stroke-opacity:0.960784"
         d="m 61.855672,63.130273 c 0,0 -0.299908,0.599813 0.07498,1.08716 0.374883,0.487346 1.53702,0.899718 1.911903,2.886599 0.374883,1.986878 0.22493,4.611057 0.22493,4.611057 0,0 2.024367,-0.787254 1.949389,-4.723524 -0.07497,-3.93627 -0.899718,-5.69822 -2.436738,-6.035614 -1.537018,-0.337394 -1.724459,2.174322 -1.724459,2.174322 z"
         id="path19" /><path
         style="fill:#9955ff;fill-opacity:1;fill-rule:nonzero;stroke:#f56c85;stroke-width:0.023;stroke-dasharray:none;stroke-opacity:0.960784"
         d="m 64.845884,74.523192 c 0,0 -6.742385,10.510189 -7.614928,10.946463 -0.872545,0.436271 -5.03696,6.980351 -5.473231,9.320355 -0.436272,2.340004 5.235265,-8.130524 7.733913,-10.430867 2.498649,-2.300343 5.354246,-9.835951 5.354246,-9.835951 z"
         id="path20" /><path
         style="fill:#9955ff;fill-opacity:1;fill-rule:nonzero;stroke:#f56c85;stroke-width:0.023;stroke-dasharray:none;stroke-opacity:0.960784"
         d="m 82.473738,55.950789 c 0,0 0.126299,1.364038 1.086176,0.378899 0.959879,-0.985137 0.176821,-1.869236 0.78306,-2.298655 0.606237,-0.429419 1.616636,-0.909357 2.879633,0.126299 1.262999,1.035658 0.909359,6.719149 -0.429419,10.35658 -1.338776,3.637433 -4.016333,13.791932 -3.991073,17.656706 0.02527,3.864772 2.77671,-13.52202 4.678463,-16.908065 1.901751,-3.386048 2.45836,-12.199043 2.45836,-12.199043 0,0 -0.463841,-3.710734 -4.638418,-2.272824 -4.174577,1.43791 -2.826782,5.160103 -2.826782,5.160103 z"
         id="path21" /><path
         style="fill:#9955ff;fill-opacity:1;fill-rule:nonzero;stroke:#f56c85;stroke-width:0.023;stroke-dasharray:none;stroke-opacity:0.960784"
         d="m 76.02008,58.658651 c 0,0 1.276575,2.170178 3.063782,0.702117 1.787205,-1.468062 2.489322,-3.446754 2.489322,-3.446754 0,0 -0.255315,3.446754 -1.659549,4.787157 -1.404234,1.340405 -2.361665,3.063782 -4.6595,2.042522 -2.297838,-1.02126 0.765945,-4.085042 0.765945,-4.085042 z"
         id="path22" /></g><g
       id="g1"
       inkscape:label="magit"
       transform="translate(-0.94523745,-53.189064)"><rect
         style="fill:#5f5fd3;fill-opacity:1;stroke:#766c85;stroke-width:0;stroke-linejoin:round;stroke-opacity:0.960784"
         id="rect221"
         width="20.520597"
         height="20.665106"
         x="65.687782"
         y="11.466089"
         ry="3.9740591"
         transform="rotate(44.835759)" /><ellipse
         style="display:inline;fill:#f9f9f9;fill-opacity:1;stroke:#766c85;stroke-width:0;stroke-linejoin:round;stroke-opacity:0.960784"
         id="path221"
         cx="36.321884"
         cy="68.150475"
         rx="5.5881963"
         ry="1.542575" /><ellipse
         style="fill:#5f5fd3;fill-opacity:1;stroke:#766c85;stroke-width:0;stroke-linejoin:round;stroke-opacity:0.960784"
         id="path222"
         cx="36.35099"
         cy="68.121361"
         rx="3.2888863"
         ry="0.58210373" /><path
         style="fill:#5f5fd3;fill-opacity:1;stroke:#766c85;stroke-width:0;stroke-linejoin:round;stroke-opacity:0.960784"
         d="m 33.536182,64.562197 5.377026,-0.03425 -0.102746,3.561852 -5.171535,-0.03425 z"
         id="path226" /><text
         xml:space="preserve"
         style="font-size:4.53729px;font-family:'FOT-Yuruka Std';-inkscape-font-specification:'FOT-Yuruka Std';fill:#f9f9f9;fill-opacity:1;stroke:#766c85;stroke-width:0;stroke-linejoin:round;stroke-opacity:0.960784"
         x="31.479328"
         y="72.972771"
         id="text222"
         transform="scale(1.0674536,0.93680886)"><tspan
           sodipodi:role="line"
           id="tspan222"
           style="stroke-width:0"
           x="31.479328"
           y="72.972771">M</tspan></text><path
         style="display:inline;fill:#f9f9f9;fill-opacity:1;stroke:#766c85;stroke-width:0;stroke-linejoin:round;stroke-opacity:0.960784"
         d="m 33.091949,69.639346 -0.21249,5.406672 c 0,0 0.613859,1.015229 3.210951,0.991621 2.597093,-0.02359 3.58871,-0.991621 3.58871,-0.991621 l -0.259709,-5.430285 c 0,0 -1.180497,0.68469 -3.187341,0.708302 -2.006844,0.0236 -3.140121,-0.684689 -3.140121,-0.684689 z"
         id="path224" /><path
         style="fill:#5f5fd3;fill-opacity:1;stroke:#766c85;stroke-width:0;stroke-linejoin:round;stroke-opacity:0.960784"
         d="m 33.587758,70.324035 0.661078,0.188876 v 4.863647 l -0.873568,-0.33054 z"
         id="path225" /><text
         xml:space="preserve"
         style="font-size:3.09431px;font-family:'FOT-Yuruka Std';-inkscape-font-specification:'FOT-Yuruka Std';fill:#f9f9f9;fill-opacity:1;stroke:#766c85;stroke-width:0;stroke-linejoin:round;stroke-opacity:0.960784"
         x="36.261391"
         y="60.211647"
         id="text226"><tspan
           sodipodi:role="line"
           id="tspan226"
           style="font-style:normal;font-variant:normal;font-weight:900;font-stretch:normal;font-family:'FOT-Yuruka Std';-inkscape-font-specification:'FOT-Yuruka Std Heavy';fill:#f9f9f9;stroke-width:0"
           x="36.261391"
           y="60.211647">+</tspan></text><text
         xml:space="preserve"
         style="font-size:3.09431px;font-family:'FOT-Yuruka Std';-inkscape-font-specification:'FOT-Yuruka Std';fill:#f9f9f9;fill-opacity:1;stroke:#766c85;stroke-width:0;stroke-linejoin:round;stroke-opacity:0.960784"
         x="35.405079"
         y="64.767433"
         id="text226-9"><tspan
           sodipodi:role="line"
           id="tspan226-4"
           style="font-style:normal;font-variant:normal;font-weight:900;font-stretch:normal;font-family:'FOT-Yuruka Std';-inkscape-font-specification:'FOT-Yuruka Std Heavy';fill:#f9f9f9;stroke-width:0"
           x="35.405079"
           y="64.767433">+</tspan></text><text
         xml:space="preserve"
         style="font-style:normal;font-variant:normal;font-weight:900;font-stretch:normal;font-size:3.09431px;font-family:'FOT-Yuruka Std';-inkscape-font-specification:'FOT-Yuruka Std Heavy';fill:#f9f9f9;fill-opacity:1;stroke:#766c85;stroke-width:0;stroke-linejoin:round;stroke-opacity:0.960784"
         x="41.162518"
         y="62.25378"
         id="text227"><tspan
           sodipodi:role="line"
           id="tspan227"
           style="fill:#f9f9f9;stroke-width:0"
           x="41.162518"
           y="62.25378">-</tspan></text><path
         style="display:inline;fill:#f9f9f9;fill-opacity:1;stroke:#766c85;stroke-width:0;stroke-linejoin:round;stroke-opacity:0.960784"
         d="m 38.344372,61.355244 9.67972,9.638876 -0.612641,0.735168 -9.802248,-9.55719 z"
         id="path227" /><path
         style="fill:#5f5fd3;fill-opacity:1;stroke:#766c85;stroke-width:0;stroke-linejoin:round;stroke-opacity:0.960784"
         d="m 38.058473,62.090412 0.245055,-0.2859 2.186535,2.115124 -0.313086,0.284623 z"
         id="path228" /></g><g
       id="g2"
       transform="matrix(0.49146822,0,0,0.49146822,-0.51179055,-98.49317)"
       inkscape:label="telega"><path
         style="display:inline;fill:#b380ff;fill-opacity:1;stroke:#766c85;stroke-width:0.00600001;stroke-linejoin:round;stroke-opacity:0.960784;paint-order:fill markers stroke"
         d="m 117.70008,241.68948 c 0,0 -2.83365,0.20734 -1.45138,2.48808 1.38227,2.28074 3.87035,6.15109 3.87035,6.15109 0,0 0.76024,0.62202 1.31315,0.62202 0.55291,0 19.90465,-1.10581 19.90465,-1.10581 l -18.03859,4.90705 8.29361,13.61533 c 0,0 1.17493,1.58962 2.34985,0.27647 1.17493,-1.31316 20.45756,-21.01048 20.45756,-21.01048 0,0 0.76025,-2.14252 -0.55291,-2.34986 -1.31315,-0.20734 -36.14629,-3.59389 -36.14629,-3.59389 z"
         id="path1" /><path
         style="display:inline;fill:#9955ff;fill-opacity:1;stroke:#766c85;stroke-width:0.00600001;stroke-linejoin:round;stroke-opacity:0.960784;paint-order:fill markers stroke"
         d="m 123.28128,254.79061 -3.90689,5.51561 c 0,0 -0.95757,2.33648 1.11078,2.14496 2.06835,-0.19151 6.81791,-0.99587 6.81791,-0.99587 z"
         id="path2" /></g><path
       d="m 81.802504,17.259919 c 0.135869,0 0.235507,-0.135869 0.244565,-0.262681 L 82.35504,9.9773035 v -0.01812 c 0,-0.09964 -0.05435,-0.22645 -0.226449,-0.235508 l -1.802538,-0.09058 h -0.01812 c -0.126812,0 -0.271739,0.07246 -0.307971,0.117753 -0.443841,0.5253635 -1.295291,1.8568865 -2.038046,3.1340615 -0.01812,0.02717 -0.02717,0.04529 -0.04529,0.04529 -0.01811,0 -0.02717,-0.0091 -0.04529,-0.03623 -0.742755,-1.277175 -1.594205,-2.617756 -2.038046,-3.1431195 -0.03623,-0.04529 -0.217391,-0.117753 -0.344203,-0.117753 h -0.01812 l -1.784422,0.09964 c -0.172102,0.01812 -0.226449,0.153986 -0.226449,0.253624 l 0.353261,7.0108765 c 0,0.126812 0.09964,0.262681 0.244565,0.262681 h 0.0091 l 1.739132,-0.144927 c 0.199276,-0.01812 0.326088,-0.208334 0.326088,-0.307972 v -0.0091 l -0.40761,-3.849641 v -0.06341 c 0,-0.05435 0.0091,-0.09058 0.02717,-0.09058 0.02717,0 0.05435,0.02717 0.09058,0.07246 0.172102,0.235508 0.833334,1.594205 1.286233,2.427539 0.05435,0.108696 0.144928,0.244565 0.307972,0.244565 l 0.932971,-0.03623 c 0.199276,-0.0091 0.298914,-0.135869 0.335146,-0.208333 0.443841,-0.833334 1.105073,-2.246379 1.268117,-2.472829 0.03623,-0.04529 0.06341,-0.07246 0.08152,-0.07246 0.02717,0 0.03623,0.03623 0.03623,0.09964 v 0.04529 l -0.425725,3.913047 v 0.0091 c 0,0.09964 0.09058,0.298914 0.289855,0.307972 l 1.83877,0.135869 z m 4.963776,-2.192031 c 0.09964,0 0.172102,-0.09058 0.172102,-0.181159 v -0.471015 c 0,-0.09964 -0.07246,-0.18116 -0.18116,-0.18116 l -3.251814,-0.0091 c -0.108696,0 -0.190218,0.09058 -0.190218,0.190218 v 0.461957 c 0,0.108696 0.08152,0.190217 0.190218,0.190217 z m 6.431152,1.539857 c 0.1087,-0.05435 0.1721,-0.13587 0.1721,-0.22645 0,-0.06341 -0.0272,-0.126811 -0.0906,-0.199275 l -1.16848,-1.349639 c 0.18116,-0.172102 1.25001,-1.204711 1.25001,-1.512683 0,-0.06341 -0.0362,-0.117753 -0.11776,-0.181159 l -1.18659,-0.94203 c -0.0996,-0.08152 -0.18116,-0.117754 -0.25363,-0.117754 -0.0815,0 -0.14491,0.04529 -0.20832,0.108696 l -0.94203,0.951088 -0.86957,-1.014494 c -0.0815,-0.09964 -0.19021,-0.163044 -0.30797,-0.163044 -0.0634,0 -0.12681,0.01812 -0.199273,0.05435 l -1.367755,0.706523 c -0.108696,0.05435 -0.18116,0.135869 -0.18116,0.226449 0,0.06341 0.02717,0.13587 0.09964,0.217392 l 1.204711,1.403986 c -0.534421,0.498189 -1.123189,1.005436 -1.431161,1.277176 -0.07246,0.06341 -0.09964,0.126811 -0.09964,0.190217 0,0.07246 0.04529,0.153986 0.144927,0.235508 l 1.068842,0.860508 c 0.06341,0.05435 0.126812,0.07246 0.181159,0.07246 0.09058,0 0.172102,-0.04529 0.27174,-0.108696 0.353259,-0.244566 0.83333,-0.570653 1.26812,-0.905798 l 0.9058,1.050725 c 0.0996,0.108696 0.18116,0.153986 0.27174,0.153986 0.0725,0 0.15398,-0.02717 0.26267,-0.09058 z"
       id="text25"
       style="font-size:9.05798px;font-family:'FOT-Yuruka Std';-inkscape-font-specification:'FOT-Yuruka Std';fill:#9955ff;stroke:#766c85;stroke-width:0.0212229;stroke-linejoin:round;stroke-opacity:0.960784"
       aria-label="M-x" /><path
       d="m 45.404529,75.968977 c 0.08467,0 0.141112,-0.0776 0.141112,-0.15522 v -0.84667 c 0,-0.0917 -0.04939,-0.16933 -0.148167,-0.16933 h -0.543278 l 0.04939,-1.00895 h 0.500944 c 0.08467,0 0.141112,-0.0705 0.141112,-0.15522 v -0.84667 c 0,-0.0917 -0.04939,-0.16933 -0.148167,-0.16933 h -0.430389 c 0.02822,-0.55034 0.04939,-0.9525 0.04939,-1.02306 v -0.0141 c 0,-0.0494 -0.04233,-0.11289 -0.112889,-0.11994 -0.07761,-0.007 -0.973668,-0.0494 -1.072445,-0.0494 h -0.01411 c -0.05644,0 -0.112889,0.0564 -0.119944,0.11289 l -0.05645,1.10066 h -0.663222 v -1.06539 c 0,-0.0635 -0.04233,-0.127 -0.127,-0.127 h -1.072444 c -0.0635,0 -0.127001,0.0564 -0.127001,0.127 v 1.06539 h -0.606778 c -0.05644,0 -0.127,0.0423 -0.127,0.127 v 0.91017 c 0,0.0635 0.0635,0.127 0.127,0.127 h 0.606778 v 1.016 h -0.606778 c -0.05644,0 -0.127,0.0423 -0.127,0.127 v 0.91017 c 0,0.0635 0.0635,0.127 0.127,0.127 h 0.606778 v 1.15006 c 0,0.0847 0.07761,0.14111 0.162278,0.14111 h 1.00189 c 0.09172,0 0.169333,-0.0494 0.169333,-0.14817 v -1.143 h 0.479778 l -0.05644,1.11478 v 0.0141 c 0,0.0705 0.07056,0.127 0.148167,0.13405 0.105833,0 0.9525,0.0423 1.008945,0.0494 0.08467,0 0.169333,-0.0423 0.169333,-0.13405 l 0.0635,-1.17828 z m -1.876779,-1.17122 -0.543278,0.007 -0.0071,-1.016 h 0.599722 z m 7.069676,0.4445 c 0,-0.91723 -0.670279,-2.13784 -2.229557,-2.13784 -1.241779,0 -2.328335,0.75495 -2.328335,2.20839 0,1.24178 1.008945,2.07434 2.159001,2.07434 1.00189,0 2.398891,-0.76906 2.398891,-2.14489 z m -2.229557,0.79727 c -0.402167,0 -0.783168,-0.32455 -0.783168,-0.81138 0,-0.3175 0.169334,-0.81845 0.762001,-0.81845 0.719667,0 0.747889,0.68439 0.747889,0.81845 0,0.40216 -0.225778,0.81138 -0.726722,0.81138 z m 4.642552,1.19945 c 0.07761,0 0.141111,-0.0635 0.141111,-0.14111 v -0.0141 l -0.134056,-2.49767 c 0.112889,-0.0282 0.211667,-0.0423 0.310445,-0.0423 0.119945,0 0.239889,0.0212 0.352778,0.0564 0.02822,0.007 0.05644,0.0141 0.07761,0.0141 0.08467,0 0.155223,-0.0494 0.176389,-0.14817 l 0.204611,-0.99483 c 0.0071,-0.0353 0.01411,-0.0635 0.01411,-0.0917 0,-0.0847 -0.04233,-0.14111 -0.148167,-0.16933 -0.218723,-0.0494 -0.451556,-0.0776 -0.691445,-0.0776 -0.352778,0 -0.719667,0.0565 -1.100667,0.17639 l -0.818445,0.0423 c -0.07761,0 -0.141112,0.0705 -0.141112,0.15522 l 0.197556,3.66889 c 0,0.0847 0.07056,0.14111 0.155222,0.14111 z m 2.144885,1.50989 c -0.0071,0.0282 -0.01411,0.0706 -0.01411,0.11289 0,0.0564 0.01411,0.11289 0.07761,0.13405 0.373944,0.14817 0.783167,0.22578 1.192389,0.22578 1.100668,0 2.180168,-0.58561 2.469446,-2.08139 0.204612,-1.05833 0.211667,-2.34244 0.225778,-3.58422 0,-0.10584 -0.07055,-0.19756 -0.183444,-0.20461 -0.162278,-0.007 -1.31939,-0.0847 -1.31939,-0.0847 h -0.03528 c -0.0635,0 -0.127,0.0141 -0.148167,0.0917 -0.275167,-0.11994 -0.599722,-0.18344 -0.938389,-0.18344 -1.488723,0 -1.996724,1.03716 -1.996724,1.89089 0,1.31233 0.980723,2.18017 2.060224,2.18017 0.225778,0 0.465667,-0.0423 0.684389,-0.11289 -0.169333,0.56444 -0.515056,0.90311 -1.107723,0.90311 -0.155222,0 -0.324555,-0.0212 -0.515056,-0.0706 -0.01411,0 -0.02822,-0.007 -0.04233,-0.007 -0.07761,0 -0.155222,0.0494 -0.183445,0.14111 z m 2.20839,-2.90689 c -0.112889,0.0917 -0.338667,0.16933 -0.508,0.16933 -0.62089,0 -0.733779,-0.57855 -0.733779,-0.85372 0,-0.39511 0.246945,-0.75495 0.691445,-0.75495 0.303389,0 0.578556,0.17639 0.606778,0.50801 0,0.3175 -0.0071,0.62794 -0.02117,0.91016 z m 7.154335,0.53622 c 0.01411,-0.0282 0.02117,-0.0494 0.02117,-0.0635 0,-0.0705 -0.07761,-0.11289 -0.148167,-0.14817 -0.225777,-0.11994 -0.303389,-0.42333 -0.303389,-0.84666 0,-0.46567 0.09878,-1.0795 0.197556,-1.72156 v -0.0353 c 0,-0.0847 -0.04939,-0.17639 -0.232833,-0.1905 l -1.220612,-0.10583 h -0.03528 c -0.08467,0 -0.148167,0.0212 -0.1905,0.0706 -0.275167,-0.11995 -0.62089,-0.19756 -0.973668,-0.19756 -1.397,0 -1.996723,1.22061 -1.996723,2.06728 0,1.13594 1.016001,2.03906 2.194279,2.03906 0.359834,0 0.740834,-0.0847 1.107723,-0.27517 0.352778,0.33161 0.846667,0.4445 0.917223,0.4445 0.09172,0 0.162278,-0.0635 0.225778,-0.18345 z m -2.06728,-0.51505 c -0.162277,0.0705 -0.3175,0.0988 -0.451555,0.0988 -0.458612,0 -0.733779,-0.33866 -0.733779,-0.73377 0,-0.35984 0.246945,-0.79023 0.691445,-0.79023 0.204611,0 0.395112,0.0988 0.479778,0.23989 -0.01411,0.21167 -0.02117,0.40217 -0.02117,0.58561 0,0.21873 0.01411,0.41628 0.03528,0.59973 z m 7.154341,-0.508 c 0,-1.34762 -1.086556,-2.22251 -2.518835,-2.22251 -0.254,0 -0.515056,0.0282 -0.790223,0.0847 l -0.790222,-0.0423 h -0.01411 c -0.07056,0 -0.134056,0.0635 -0.141112,0.14111 l -0.1905,3.66889 c 0,0.0847 0.05644,0.14817 0.141111,0.15522 l 1.411113,0.0706 h 0.01411 c 0.07055,0 0.134055,-0.0635 0.134055,-0.13406 l 0.134056,-2.56117 c 0.515056,0.0282 0.874889,0.33867 0.874889,1.0795 v 0.23989 c 0,1.25589 1.12889,1.62984 1.25589,1.62984 0.0635,0 0.134056,-0.0212 0.204611,-0.0776 0,0 0.698501,-0.50095 0.698501,-0.51506 0.04939,-0.0353 0.07056,-0.0776 0.07056,-0.11994 0,-0.0776 -0.07056,-0.14817 -0.112889,-0.18345 -0.289278,-0.26811 -0.381,-0.58561 -0.381,-0.98072 z m 2.794008,1.87677 c 0.07055,-0.007 0.134056,-0.0706 0.134056,-0.14111 v -0.0141 l -0.17639,-3.44311 c 0,-0.0706 -0.0635,-0.13406 -0.134055,-0.13406 h -0.01411 l -1.411112,0.0706 c -0.08467,0.007 -0.141111,0.0705 -0.141111,0.15522 l 0.176389,3.43606 c 0.0071,0.0776 0.0635,0.14111 0.141111,0.14111 h 0.01411 z m 0.07055,-4.8895 c 0,-0.57855 -0.465667,-1.04422 -1.037167,-1.04422 -0.578556,0 -1.044223,0.46567 -1.044223,1.04422 0,0.5715 0.465667,1.03717 1.044223,1.03717 0.5715,0 1.037167,-0.46567 1.037167,-1.03717 z m 3.704164,5.00239 c 0.162278,0 0.218723,-0.0917 0.225778,-0.21872 l 0.04939,-0.90311 v -0.0212 c 0,-0.11994 -0.07055,-0.21872 -0.225778,-0.22578 l -0.973667,-0.0423 c -0.02822,0 -0.04233,-0.007 -0.04233,-0.0212 0,-0.0141 0.0071,-0.0282 0.03528,-0.0564 0.388056,-0.38806 0.804334,-0.79022 1.00189,-1.00894 0.09878,-0.10584 0.148167,-0.22578 0.155222,-0.35984 l 0.04939,-0.84667 v -0.0212 c 0,-0.23989 -0.282222,-0.254 -0.359833,-0.254 l -2.476502,-0.13406 h -0.01411 c -0.119945,0 -0.211667,0.0847 -0.218723,0.23989 l -0.04939,0.90311 v 0.007 c 0,0.14816 0.162277,0.19755 0.239889,0.19755 l 0.867833,0.0423 c 0.02822,0 0.04939,0.007 0.04939,0.0212 0,0.0282 -0.677333,0.762 -1.150056,1.16417 -0.07761,0.0635 -0.141111,0.14817 -0.148167,0.28222 l -0.04939,0.86078 v 0.0353 c 0,0.11289 0.03528,0.19756 0.225778,0.20461 l 2.786947,0.15522 z m 3.351396,0.0564 c 0.204611,0 0.296333,-0.0988 0.352778,-0.21167 0.105833,-0.23989 0.289278,-0.71967 0.289278,-0.79022 0,-0.11995 -0.119945,-0.18345 -0.218723,-0.18345 h -0.01411 c -0.04939,0.007 -0.105833,0.007 -0.155222,0.007 -0.881945,0 -1.248834,-0.56445 -1.248834,-1.06539 0,-0.43744 0.282222,-0.73378 0.620889,-0.73378 0.296333,0 0.430389,0.22578 0.430389,0.28928 0,0.0988 -0.04939,0.11289 -0.416278,0.19756 -0.09172,0.0212 -0.148167,0.0564 -0.148167,0.13405 0,0.0282 0.134056,0.48683 0.218723,0.71967 0.02822,0.0847 0.0635,0.13405 0.176389,0.13405 0.366889,-0.0141 0.889,-0.0917 1.220612,-0.20461 0.416278,-0.14111 0.550333,-0.40922 0.550333,-0.73378 0,-0.23283 -0.07761,-1.79211 -1.82739,-1.79211 -1.608667,0 -2.321279,1.05834 -2.321279,2.06728 0,1.07245 0.804334,2.16606 2.405946,2.16606 z"
       id="text26"
       style="font-size:7.05556px;font-family:'FOT-Yuruka Std';-inkscape-font-specification:'FOT-Yuruka Std';fill:#5f5fd3;stroke:#766c85;stroke-width:0;stroke-linejoin:round;stroke-opacity:0.960784"
       aria-label="#organize" /><path
       d="m 91.64632,72.322342 c 0.04371,0.0313 0.08352,0.0472 0.118001,0.05477 0.08273,0.01816 0.153784,-0.0096 0.239349,-0.07026 3.570443,-2.806366 4.404313,-4.10415 4.427004,-4.207523 0.01362,-0.06202 -0.01711,-0.119333 -0.09077,-0.178841 l -0.910352,-0.756042 c -0.05988,-0.05648 -0.11884,-0.08388 -0.160185,-0.09296 -0.0758,-0.01664 -0.133123,0.01412 -0.189596,0.07396 -0.454171,0.456518 -0.981612,0.983636 -1.522845,1.507727 l -0.41316,-2.033825 c -0.02253,-0.127746 -0.09245,-0.236998 -0.216493,-0.264227 -0.02754,-0.006 -0.05661,-0.0052 -0.08576,-0.0044 l -1.16685,0.08337 c -0.109419,0.0049 -0.205735,0.04874 -0.226914,0.145227 -0.0076,0.03446 -0.0029,0.07883 0.0072,0.131615 l 0.648822,3.197979 c 0.01163,0.04589 0.01784,0.08337 0.03391,0.108575 l -1.434438,1.36822 c -0.04507,0.04068 -0.07627,0.08441 -0.08685,0.132622 -0.01514,0.06896 0.02102,0.134638 0.115303,0.198682 z m 9.29743,-2.076563 c 0.19665,-0.895894 -0.19634,-2.231831 -1.719355,-2.566145 -1.212901,-0.266242 -2.436046,0.238188 -2.747669,1.657833 -0.266241,1.212902 0.540734,2.242418 1.664049,2.488994 0.97859,0.214809 2.507985,-0.236843 2.802975,-1.580682 z m -2.348655,0.300713 c -0.392803,-0.08622 -0.695367,-0.484923 -0.590988,-0.960435 0.06807,-0.310117 0.340879,-0.763105 0.919768,-0.636035 0.70292,0.154298 0.58375,0.828822 0.55501,0.95976 -0.0862,0.392815 -0.39448,0.744115 -0.88379,0.63671 z m 6.624395,2.696552 c 0.0758,0.01664 0.15682,-0.02332 0.18187,-0.104549 l 0.97269,-3.542726 c 0.0181,-0.0827 -0.0218,-0.163705 -0.10455,-0.181867 l -1.35476,-0.376838 c -0.0758,-0.01664 -0.15682,0.02337 -0.18187,0.104549 l -0.64443,2.343441 c -0.19044,0.04488 -0.36642,0.05682 -0.50425,0.02656 -0.28944,-0.06353 -0.4508,-0.315662 -0.34827,-0.91438 0.1387,-0.829156 0.20661,-1.204319 0.26655,-1.675139 0.0113,-0.0842 -0.0287,-0.165228 -0.16657,-0.195482 -0.11716,-0.02572 -1.20198,-0.184386 -1.21189,-0.172116 -0.0843,-0.01122 -0.1928,0.02269 -0.25482,0.305242 -0.09,0.442555 -0.26369,1.300144 -0.34141,1.752615 -0.21934,1.29543 0.40694,1.996342 1.36487,2.206614 0.30322,0.06656 0.63921,0.08257 0.9927,0.05176 z m 2.97325,0.638215 c 0.0758,0.01664 0.15144,-0.03177 0.16808,-0.107574 l 0.003,-0.01377 0.40457,-2.468326 c 0.11632,-0.0034 0.21582,0.004 0.3123,0.02521 0.11716,0.02572 0.22977,0.07211 0.33247,0.130765 0.026,0.01298 0.0521,0.02587 0.0728,0.03042 0.0827,0.01816 0.1622,-0.01496 0.20406,-0.106903 l 0.41315,-0.92783 c 0.0144,-0.03296 0.0274,-0.059 0.0334,-0.08656 0.0182,-0.0827 -0.0111,-0.146899 -0.1084,-0.197162 -0.20306,-0.09514 -0.42442,-0.172621 -0.65874,-0.224054 -0.34457,-0.07564 -0.71503,-0.09917 -1.11289,-0.0637 l -0.80848,-0.134131 c -0.0758,-0.01664 -0.15296,0.03866 -0.17111,0.121358 l -0.59367,3.625928 c -0.0182,0.08273 0.0387,0.152966 0.12137,0.171111 z"
       id="text27"
       style="font-size:7.05556px;font-family:'FOT-Yuruka Std';-inkscape-font-specification:'FOT-Yuruka Std';fill:#8787de;stroke:#766c85;stroke-width:0;stroke-linejoin:round;stroke-opacity:0.960784"
       aria-label="your" /><path
       d="m 116.7811,77.672001 c 0.0771,-0.0089 0.13285,-0.07934 0.12391,-0.15644 l -0.66422,-5.725994 c -0.01,-0.08414 -0.0802,-0.139856 -0.15724,-0.130913 l -1.40871,0.163411 c -0.0771,0.0089 -0.13287,0.07934 -0.12311,0.163434 l 0.66421,5.725994 c 0.009,0.07708 0.0793,0.132863 0.15644,0.123919 z m 2.89829,-0.364591 c 0.0693,-0.01509 0.12505,-0.08548 0.11691,-0.155618 l -0.002,-0.01401 -0.57196,-3.399851 c -0.008,-0.07013 -0.0785,-0.12585 -0.14862,-0.117719 l -0.014,0.0016 -1.39358,0.232729 c -0.0833,0.01671 -0.13204,0.08629 -0.12228,0.170445 l 0.57114,3.392848 c 0.0159,0.07628 0.0793,0.132853 0.15643,0.123911 l 0.014,-0.0016 z m -0.49327,-4.865067 c -0.0667,-0.574706 -0.58289,-0.983607 -1.15059,-0.917754 -0.5747,0.06667 -0.9836,0.582881 -0.91694,1.157587 0.0658,0.567693 0.58207,0.976605 1.15678,0.909939 0.56769,-0.06585 0.9766,-0.582079 0.91075,-1.149772 z m 3.61038,4.304607 c -0.13081,-0.638288 -0.28368,-1.465806 -0.3987,-2.212466 l 0.49305,-0.03585 0.014,-0.0016 c 0.0771,-0.0089 0.12584,-0.07852 0.12472,-0.149427 l -0.0508,-1.173179 c -0.01,-0.08414 -0.081,-0.146869 -0.15805,-0.137926 l -0.5998,0.03404 c -0.0772,-0.665815 0.40656,-0.842689 0.764,-0.884152 l 0.0211,-0.0024 c 0.0911,-0.01057 0.19513,-0.09361 0.19613,-0.207421 l 0.0335,-0.813606 -0.003,-0.02801 c -0.008,-0.07003 -0.0414,-0.172762 -0.1349,-0.183226 -0.23241,-0.04411 -0.49659,-0.05604 -0.76293,-0.02515 -0.89008,0.10325 -1.80361,0.678012 -1.78636,1.990043 l 0.009,0.261754 -0.40893,0.02609 c -0.0841,0.0098 -0.13987,0.08015 -0.13794,0.158067 l 0.0508,1.173178 c 0.009,0.07708 0.0802,0.139866 0.15806,0.137927 l 0.50786,-0.03052 c 0.11781,0.831575 0.27708,1.715168 0.38561,2.405762 0.0183,0.09734 0.0982,0.173286 0.20337,0.16109 l 0.014,-0.0016 c 0.1612,-0.0187 1.30166,-0.229113 1.30166,-0.229113 0.0911,-0.01057 0.18679,-0.04301 0.16891,-0.197156 z m 3.58862,-0.04693 c 0.20325,-0.02358 0.28297,-0.132287 0.32603,-0.250909 0.0775,-0.250488 0.20443,-0.748209 0.1963,-0.818289 -0.0138,-0.119151 -0.14028,-0.168408 -0.2384,-0.157026 l -0.014,0.0016 c -0.0483,0.01265 -0.10433,0.01915 -0.15338,0.02484 -0.87607,0.101625 -1.30556,-0.41679 -1.36328,-0.914393 -0.0504,-0.434536 0.19579,-0.761412 0.5322,-0.800436 0.29436,-0.03414 0.45354,0.174683 0.46086,0.23776 0.0114,0.09814 -0.0361,0.117831 -0.39075,0.244201 -0.0886,0.03163 -0.14067,0.0731 -0.13172,0.15024 0.003,0.02801 0.18925,0.468141 0.30019,0.689673 0.0378,0.08089 0.0785,0.125841 0.19066,0.112833 0.36282,-0.05628 0.87251,-0.193527 1.1889,-0.343895 0.39725,-0.188137 0.49951,-0.469908 0.46211,-0.792306 -0.0268,-0.231279 -0.28358,-1.771231 -2.02172,-1.569607 -1.59795,0.185363 -2.18387,1.318755 -2.06761,2.320985 0.12358,1.065296 1.04858,2.05895 2.63952,1.874401 z"
       id="text28"
       style="font-size:7.05556px;font-family:'FOT-Yuruka Std';-inkscape-font-specification:'FOT-Yuruka Std';fill:#5f5fd3;stroke:#766c85;stroke-width:0;stroke-linejoin:round;stroke-opacity:0.960784"
       aria-label="life" /><path
       d="m 155.19571,78.558477 c 0.0776,0 0.13406,-0.0565 0.13406,-0.13406 v -3.10444 c 0,-0.0776 -0.0565,-0.14112 -0.13406,-0.14112 h -0.93133 c 0.9525,-0.37394 1.87678,-0.80433 2.43417,-1.12889 0.0564,-0.0353 0.0917,-0.10583 0.0917,-0.16933 0,-0.0212 -0.007,-0.0423 -0.0141,-0.0564 l -0.74084,-1.24884 c -0.0282,-0.0494 -0.11289,-0.0847 -0.18344,-0.0847 -0.0212,0 -0.0423,0.007 -0.0635,0.0141 -1.15006,0.56444 -3.12561,1.57339 -4.54378,2.12372 -0.0494,0.0212 -0.0847,0.0706 -0.0847,0.127 0,0.0212 0.007,0.0353 0.0141,0.0564 l 0.41628,1.05833 c 0.0212,0.0635 0.0776,0.0917 0.14111,0.0917 0.0847,0 0.85373,-0.16228 1.905,-0.54328 v 3.00567 c 0,0.0776 0.0635,0.13406 0.14111,0.13406 z m 7.85284,-2.32128 c 0.0776,0 0.16933,-0.0635 0.16933,-0.14817 v -1.27705 c 0,-0.0917 -0.0917,-0.16228 -0.16933,-0.16228 l -4.79073,-0.007 c -0.0776,0 -0.16933,0.0706 -0.16933,0.15522 v 1.28412 c 0,0.0917 0.0988,0.16227 0.17639,0.16227 z m 5.12939,-1.47461 c 0.0705,0 0.0988,0.0353 0.0988,0.10583 0,0.0564 -0.0635,0.508 -0.11288,0.74083 -0.007,0.0212 -0.007,0.0353 -0.007,0.0564 0,0.0705 0.0353,0.14111 0.13406,0.16933 0.21166,0.0776 0.98072,0.24695 1.00189,0.24695 0.10583,0 0.15522,-0.0635 0.21872,-0.14817 0.52211,-0.70556 0.73378,-1.68628 0.73378,-2.03906 0,-0.50094 -0.49389,-0.68439 -0.85373,-0.68439 -0.0353,0 -0.0635,0.007 -0.0917,0.007 l -4.43089,0.40922 c -0.0776,0.007 -0.14111,0.0706 -0.14111,0.14817 v 0.0141 l 0.11289,1.18533 c 0.007,0.0776 0.0705,0.13406 0.14111,0.13406 h 0.0141 l 3.16795,-0.34572 z m 1.35466,2.34244 c 0.0282,-0.0423 0.0423,-0.0847 0.0423,-0.127 0,-0.0776 -0.0494,-0.15522 -0.127,-0.21872 -0.35984,-0.26811 -1.91206,-0.83256 -2.159,-0.83256 -0.11289,0 -0.1905,0.0776 -0.26106,0.15523 l -0.635,0.72672 c -0.0212,0.0212 -0.0282,0.0494 -0.0282,0.0776 0,0.0706 0.0705,0.14817 0.15522,0.19756 0.28928,0.1905 1.46756,0.89605 1.86972,1.12889 0.0494,0.0282 0.0988,0.0494 0.14817,0.0494 0.0565,0 0.11995,-0.0282 0.19756,-0.127 z"
       id="text219"
       style="font-size:7.05556px;font-family:'FOT-Yuruka Std';-inkscape-font-specification:'FOT-Yuruka Std';fill:#b380ff;stroke:#766c85;stroke-width:0;stroke-linejoin:round;stroke-opacity:0.960784"
       aria-label="イーマ" /><path
       d="m 176.12048,74.988326 c 0.0222,-0.0026 0.0507,-0.008 0.07,-0.01694 0.0448,-0.0208 0.0807,-0.06083 0.0855,-0.117511 0.73763,-1.594783 0.594,-3.713933 0.49596,-3.925118 -0.0208,-0.04481 -0.0608,-0.08069 -0.12386,-0.08252 l -1.04859,0.02005 c -0.0222,0.0026 -0.0443,0.005 -0.0635,0.01395 -0.0448,0.0208 -0.0841,0.07014 -0.0889,0.126833 0.0162,0.202517 0.0217,0.448869 0.0203,0.71399 -0.21483,-0.211419 -0.51833,-0.412787 -0.70139,-0.522278 -0.0745,-0.04324 -0.14101,-0.03564 -0.20501,-0.0059 -0.0192,0.0089 -0.0354,0.02416 -0.0546,0.03309 l -0.67264,0.444494 c -0.0547,0.03309 -0.0535,0.102557 -0.0238,0.166602 0.0149,0.03202 0.25845,0.338961 0.78251,0.881344 0.0519,0.06146 0.0889,0.09098 0.17849,0.04937 0.0192,-0.0089 0.0448,-0.0208 0.0674,-0.03902 l 0.61209,-0.424155 c -0.0282,0.860946 -0.13541,1.836397 -0.34322,2.578494 -0.0103,0.02815 -0.005,0.05668 0.004,0.07591 0.0267,0.0576 0.0889,0.09098 0.14259,0.08938 z m -1.62078,-1.799038 c 0.09,-0.05735 0.083,-0.139618 0.0473,-0.216435 -0.10992,-0.236781 -0.59763,-0.617129 -0.88628,-0.786497 -0.0775,-0.04959 -0.15039,-0.03911 -0.20798,-0.01238 -0.0192,0.0089 -0.0354,0.02416 -0.0547,0.03309 l -0.70716,0.437196 c -0.0547,0.03309 -0.0629,0.0992 -0.0302,0.169592 0.0119,0.02558 0.0208,0.04481 0.76331,0.890257 0.0583,0.05851 0.10125,0.100797 0.19724,0.05624 0.0192,-0.0089 0.0354,-0.02416 0.0546,-0.03309 z m 6.56701,-0.582633 c 0.0656,0.02401 0.1129,0.02543 0.15772,0.0046 0.30718,-0.142599 2.48663,-3.340134 1.88202,-5.564213 -0.0115,-0.04131 -0.0229,-0.08276 -0.0407,-0.12113 -0.17825,-0.383984 -0.62438,-0.456917 -0.89568,-0.354307 l -2.06798,0.773285 c -0.42737,-0.283884 -0.50485,-0.333483 -0.58804,-0.294864 -0.0448,0.0208 -0.0743,0.05784 -0.0944,0.09828 -0.28961,0.515594 -0.76939,1.275042 -1.33097,1.807992 -0.0487,0.04597 -0.0693,0.102161 -0.0425,0.159758 0.0119,0.02558 0.0425,0.05801 0.0859,0.08459 l 0.95736,0.621265 c 0.0745,0.04315 0.13461,0.03861 0.1986,0.0089 0.1408,-0.06536 0.56867,-0.450669 1.21163,-1.176971 l 0.7499,-0.278103 c 0.0798,-0.02931 0.13939,-0.01807 0.16318,0.03317 0.0772,0.166386 -0.47895,2.252578 -1.34478,3.587956 -0.0466,0.08383 -0.0578,0.143525 -0.037,0.188323 0.0149,0.03202 0.0395,0.05166 0.0864,0.06881 z m 5.05778,-2.308959 c 0.0903,0.04365 0.15976,0.04253 0.21735,0.01579 0.0576,-0.02674 0.0999,-0.06973 0.14859,-0.115611 1.43538,-1.381962 2.01515,-3.95359 1.42559,-5.60903 -0.0119,-0.02558 -0.0145,-0.04776 -0.0263,-0.07333 -0.19904,-0.428774 -0.71465,-0.50057 -1.01451,-0.392482 l -2.64555,0.986957 -0.0128,0.0059 c -0.0704,0.03267 -0.10425,0.110572 -0.0779,0.183976 l 0.39418,1.100503 0.006,0.01279 c 0.0327,0.07039 0.11057,0.104244 0.18398,0.07795 l 1.4102,-0.514614 c 0.0989,-0.03821 0.16159,-0.02055 0.19724,0.05623 0.14854,0.319984 -0.0836,2.333513 -1.08905,3.585913 -0.0718,0.07997 -0.0894,0.142591 -0.0656,0.193811 0.0149,0.03202 0.049,0.05511 0.0894,0.07519 z m 2.09825,-2.249737 c -0.0107,0.04389 -0.009,0.08185 0.003,0.107426 0.0237,0.05116 0.0834,0.06238 0.14946,0.07063 0.40911,0.04345 1.356,0.156181 1.80555,0.219742 0.041,0.0044 0.0946,0.0027 0.13301,-0.01511 0.0448,-0.0208 0.0742,-0.05784 0.0825,-0.12386 0.0386,-0.352424 0.1317,-1.056813 0.1635,-1.390501 0.005,-0.05668 0.006,-0.103976 -0.0116,-0.142398 -0.0238,-0.05116 -0.0766,-0.08113 -0.15838,-0.08983 -1.00105,-0.09537 -1.82637,0.171076 -1.87757,0.194845 -0.0576,0.02674 -0.10627,0.0727 -0.12137,0.157441 z"
       id="text220"
       style="font-size:7.05556px;font-family:'FOT-Yuruka Std';-inkscape-font-specification:'FOT-Yuruka Std';fill:#b380ff;stroke:#766c85;stroke-width:0;stroke-linejoin:round;stroke-opacity:0.960784"
       aria-label="ックス" /><path
       d="m 154.24499,15.650716 c 0.0648,0.08914 0.12563,0.132541 0.20262,0.144688 0.52792,0.08329 6.19574,-2.189973 7.35938,-5.63601 0.0214,-0.06425 0.0428,-0.128512 0.0533,-0.1945035 0.10411,-0.659902 -0.41634,-1.147807 -0.86206,-1.251947 l -3.38984,-0.805342 c -0.31036,-0.7478347 -0.36826,-0.8809637 -0.51124,-0.9035207 -0.077,-0.01214 -0.14819,0.0104 -0.21012,0.04575 -0.83291,0.4209267 -2.12946,0.9941477 -3.33403,1.1986307 -0.10419,0.01738 -0.18059,0.07296 -0.19621,0.171942 -0.007,0.044 0.004,0.113491 0.0382,0.18639 l 0.70814,1.6560025 c 0.0597,0.122127 0.14242,0.169006 0.25241,0.186358 0.24196,0.03817 1.14147,-0.09044 2.6227,-0.4767155 l 1.2272,0.2950615 c 0.13025,0.03182 0.19856,0.09896 0.18468,0.186947 -0.0451,0.285958 -2.60856,2.530473 -4.91748,3.518854 -0.13486,0.06891 -0.202,0.137211 -0.21415,0.214201 -0.009,0.05499 0.006,0.102484 0.0527,0.166125 z m 8.93653,-7.4161675 c 0.0764,-0.05559 0.13081,-0.114626 0.14122,-0.180618 0.009,-0.05499 -0.004,-0.113491 -0.0619,-0.17886 l -0.0295,-0.02721 -0.54595,-0.6835537 c -0.0683,-0.06714 -0.13836,-0.123278 -0.22635,-0.137159 -0.055,-0.0087 -0.11171,-0.0064 -0.17364,0.02896 l -0.6286,0.340441 c -0.0492,0.02605 -0.13486,0.06891 -0.14701,0.1458887 -0.007,0.044 0.006,0.102484 0.0527,0.166124 l 0.58416,0.869939 c 0.0464,0.06366 0.1054,0.11807 0.18236,0.130218 0.044,0.0069 0.10245,-0.0064 0.16439,-0.0417 z m -2.11916,0.07146 c 0.19044,0.0075 0.27784,-0.04634 0.29693,-0.167324 0.005,-0.03303 0.0104,-0.066 0.005,-0.100722 l -0.0568,-0.8543817 c -0.0119,-0.137212 -0.10129,-0.286521 -0.25531,-0.310809 l -0.033,-0.0052 -0.8185,-0.02768 c -0.12445,0.0029 -0.21938,0.03303 -0.24019,0.165001 -0.007,0.044 -0.001,0.07875 0.001,0.135452 l 0.0971,0.8833347 c 0.0155,0.115199 0.0839,0.182332 0.23793,0.20662 l 0.077,0.01215 z m 10.9104,6.5796035 c 0.0416,-0.04979 0.0613,-0.103039 0.07,-0.158033 0.0468,-0.296956 -0.38038,-0.589802 -1.05016,-0.988546 0.70376,-0.95982 1.20724,-2.007601 1.3634,-2.997453 0.0139,-0.08798 0.0168,-0.177709 0.0306,-0.265693 0.0723,-0.7438325 -0.43546,-1.2410005 -1.06236,-1.3399085 l -0.099,-0.01561 -5.45571,-0.500036 c -0.12099,-0.01909 -0.22459,0.06602 -0.24368,0.187 l -0.004,0.02201 -0.14971,1.7348325 c -0.0174,0.109989 0.066,0.224589 0.187,0.243672 l 0.022,0.0034 3.33074,0.32259 0.044,0.0069 c 0.13198,0.02082 0.17077,0.06076 0.15689,0.148745 -0.0382,0.241961 -0.41319,0.904215 -0.57581,1.149087 -0.44112,-0.204857 -1.07498,-0.473945 -1.29495,-0.508649 -0.16498,-0.02603 -0.25411,0.03881 -0.36292,0.156912 l -0.9683,1.064622 c -0.0272,0.02951 -0.0307,0.05152 -0.0359,0.08452 -0.0174,0.10999 0.088,0.228058 0.22058,0.316604 l 0.94303,0.667297 c -0.83171,0.770552 -1.79484,1.373832 -2.73891,1.641956 -0.12966,0.0359 -0.18754,0.116948 -0.20142,0.204937 -0.0156,0.09899 0.0132,0.204859 0.0683,0.281314 l 0.74743,1.121139 c 0.11119,0.152799 0.26919,0.222825 0.37917,0.240177 0.16498,0.02603 1.86098,-0.292553 3.86358,-1.983036 1.00729,0.688707 1.13812,0.788252 1.24811,0.805604 0.088,0.01388 0.18464,-0.02724 0.2952,-0.156326 z m 10.93701,1.83824 c 0.12098,0.01908 0.27958,-0.05734 0.3004,-0.189322 l 0.31407,-1.990704 c 0.0226,-0.142979 -0.10311,-0.275515 -0.22405,-0.294605 l -7.46615,-1.189194 c -0.12099,-0.01909 -0.28132,0.06834 -0.30214,0.200319 l -0.3158,2.001702 c -0.0226,0.142979 0.11407,0.277255 0.23504,0.296343 z"
       id="text229"
       style="font-weight:900;font-size:11.1344px;font-family:'FOT-Yuruka Std';-inkscape-font-specification:'FOT-Yuruka Std Heavy';fill:#5f5fd3;stroke:#766c85;stroke-width:0;stroke-linejoin:round;stroke-opacity:0.960784"
       aria-label="グヌー" /></g></svg>
